<svg xmlns="http://www.w3.org/2000/svg" width="337.211" height="229.688" viewBox="0 0 337.211 229.688"><defs><style>.a{opacity:0.43;mix-blend-mode:overlay;isolation:isolate;}.b{fill:#fff;}</style></defs><g class="a" transform="translate(1058.579 429.794)"><path class="b" d="M-1335.521-378.471h43.85a19.489,19.489,0,0,1,5.891.933,21.83,21.83,0,0,1,14.5,20.986,21.2,21.2,0,0,1-20.395,21.828h-86.441a23.5,23.5,0,0,0-5.958.78l-.707.807a4.737,4.737,0,0,0-.217-.56,24.931,24.931,0,0,0-12.473,8.548,28.089,28.089,0,0,0-5.93,16.028,44.138,44.138,0,0,0,.249,5.738h0a28.089,28.089,0,0,0,5.664,13.25,24.967,24.967,0,0,0,12.475,8.549,4.816,4.816,0,0,0,.219-.561l.707.808a23.475,23.475,0,0,0,5.955.779h89.485a68.052,68.052,0,0,0,57.29-38.953,77.5,77.5,0,0,0,7.887-34.307,72.717,72.717,0,0,0-49.441-70.434l-2.711-.625A99.916,99.916,0,0,0-1293.8-427h-152.582c-59,0-106.844,51.395-106.844,114.733a122.411,122.411,0,0,0,5.425,36.4h0c14.13,45.652,54.2,78.558,101.419,78.558h149.9a103.7,103.7,0,0,0,80.462-39.266h-230.366c-36.423,0-66.051-31.779-66.051-70.949a70.63,70.63,0,0,1,46.178-67.673h0a61.816,61.816,0,0,1,19.892-3.116h110.838V-381.2" transform="translate(494.644 -2.795)"/></g></svg>