<svg xmlns="http://www.w3.org/2000/svg" width="29.25" height="27.001" viewBox="0 0 29.25 27.001"><defs><style>.a{fill:#691c80;}.b{fill:#fff;}</style></defs><g transform="translate(0 0)"><g transform="translate(0 0)"><path class="a" d="M28.406,11.25H7.594a4.222,4.222,0,0,0-4.219,4.219V27.281A4.222,4.222,0,0,0,7.594,31.5H28.406a4.222,4.222,0,0,0,4.219-4.219V15.469A4.222,4.222,0,0,0,28.406,11.25Z" transform="translate(-3.375 -4.499)"/><path class="a" d="M24.11,4.57,7.594,7.8C6.328,8.079,4.5,9.352,4.5,10.9A4.43,4.43,0,0,1,7.945,9.563h20.18V8.121a4.038,4.038,0,0,0-.977-2.644h0A3.325,3.325,0,0,0,24.11,4.57Z" transform="translate(-3.375 -4.499)"/></g><g transform="translate(6.55 11.5)"><path class="b" d="M-1542.8-424.676h2.1a.932.932,0,0,1,.282.045,1.045,1.045,0,0,1,.695,1.005,1.015,1.015,0,0,1-.977,1.045h-4.14a1.126,1.126,0,0,0-.285.037l-.034.039a.21.21,0,0,0-.01-.027,1.194,1.194,0,0,0-.6.409,1.345,1.345,0,0,0-.284.768,2.13,2.13,0,0,0,.012.275h0a1.345,1.345,0,0,0,.271.635,1.2,1.2,0,0,0,.6.409.215.215,0,0,0,.01-.027l.034.039a1.124,1.124,0,0,0,.285.037h4.285a3.259,3.259,0,0,0,2.744-1.865,3.711,3.711,0,0,0,.378-1.643,3.482,3.482,0,0,0-2.368-3.373l-.13-.03a4.784,4.784,0,0,0-.871-.1h-7.307a5.317,5.317,0,0,0-5.117,5.495,5.866,5.866,0,0,0,.26,1.743h0a5.168,5.168,0,0,0,4.857,3.762h7.179a4.966,4.966,0,0,0,3.853-1.88h-11.032a3.289,3.289,0,0,1-3.163-3.4,3.382,3.382,0,0,1,2.211-3.241h0a2.96,2.96,0,0,1,.953-.149h5.308v-.138" transform="translate(1553.223 427)"/></g></g></svg>