<svg xmlns="http://www.w3.org/2000/svg" xmlns:xlink="http://www.w3.org/1999/xlink" width="237.768" height="387.185" viewBox="0 0 237.768 387.185"><defs><style>.a{fill:#fff;}.b{opacity:0.43;mix-blend-mode:overlay;isolation:isolate;}.c{opacity:0.6;}.d{clip-path:url(#a);}.e{opacity:0.7;}.f{clip-path:url(#b);}.g{opacity:0.45;}.h{clip-path:url(#c);}.i{opacity:0.8;}.j{clip-path:url(#d);}.k{clip-path:url(#e);}</style><clipPath id="a"><path class="a" d="M720.6,306.4H958.274V430.68H720.6Z" transform="translate(-720.6 -306.4)"/></clipPath><clipPath id="b"><path class="a" d="M975,0h118.86V267.436H975Z" transform="translate(-975)"/></clipPath><clipPath id="c"><path class="a" d="M720.6,470.3H839.461V637.751H720.6Z" transform="translate(-720.6 -470.3)"/></clipPath><clipPath id="d"><path class="a" d="M975,470.3h118.907V637.751H975Z" transform="translate(-975 -470.3)"/></clipPath><clipPath id="e"><path class="a" d="M720.6,0H839.461V267.436H720.6Z" transform="translate(-720.6)"/></clipPath></defs><g class="b" transform="translate(-1308.699 -316.662)"><g class="c" transform="translate(1308.699 459.818)"><g class="d"><path class="a" d="M839.461,306.4,720.6,360.457,839.461,430.68l118.814-70.223Z" transform="translate(-720.6 -306.4)"/></g></g><g class="e" transform="translate(1427.56 316.662)"><g class="f"><path class="a" d="M975,0V267.436l118.814-70.223Z" transform="translate(-975)"/></g></g><g class="g" transform="translate(1308.699 536.396)"><g class="h"><path class="a" d="M720.6,470.3,839.461,637.751V540.523Z" transform="translate(-720.6 -470.3)"/></g></g><g class="i" transform="translate(1427.56 536.396)"><g class="j"><path class="a" d="M975,540.523v97.228L1093.907,470.3Z" transform="translate(-975 -470.3)"/></g></g><g class="g" transform="translate(1308.699 316.662)"><g class="k" transform="translate(0)"><path class="a" d="M720.6,197.213l118.861,70.223V0Z" transform="translate(-720.6)"/></g></g></g></svg>