<svg xmlns="http://www.w3.org/2000/svg" version="1.1" xmlns:xlink="http://www.w3.org/1999/xlink" xmlns:svgjs="http://svgjs.com/svgjs" width="400" height="400"><svg xmlns="http://www.w3.org/2000/svg" xmlns:xlink="http://www.w3.org/1999/xlink" width="400" height="400" viewBox="0 0 400 400"><defs><style>.a{fill:#fff;}.b{fill:url(#a);}.c{clip-path:url(#b);}</style><linearGradient id="SvgjsLinearGradient1001" x1="0.209" y1="0.076" x2="0.855" y2="0.849" gradientUnits="objectBoundingBox"><stop offset="0" stop-color="#691c80"></stop><stop offset="1" stop-color="#ff43c7"></stop></linearGradient><clipPath id="SvgjsClipPath1000"><rect class="a" width="228.466" height="26.361"></rect></clipPath></defs><g transform="translate(-364 -19)"><path class="b" d="M200,0C310.457,0,400,89.543,400,200S310.457,400,200,400,0,310.457,0,200,89.543,0,200,0Z" transform="translate(364 19)"></path><g transform="translate(447.578 116.57)"><g transform="translate(0)"><path class="a" d="M-1404.287-393.8h30a13.315,13.315,0,0,1,4.032.638,14.936,14.936,0,0,1,9.923,14.358,14.505,14.505,0,0,1-13.955,14.932h-59.136a16.094,16.094,0,0,0-4.075.534l-.485.552a2.742,2.742,0,0,0-.149-.382,17.061,17.061,0,0,0-8.531,5.847,19.2,19.2,0,0,0-4.058,10.965,29.99,29.99,0,0,0,.169,3.926h0a19.229,19.229,0,0,0,3.876,9.064,17.072,17.072,0,0,0,8.534,5.849,3.022,3.022,0,0,0,.149-.384l.485.553a16.077,16.077,0,0,0,4.075.533h61.221a46.555,46.555,0,0,0,39.192-26.649,53.057,53.057,0,0,0,5.4-23.47,49.752,49.752,0,0,0-33.825-48.186l-1.855-.427A68.287,68.287,0,0,0-1375.744-427h-104.389c-40.364,0-73.09,35.162-73.09,78.493a83.643,83.643,0,0,0,3.71,24.9h0c9.665,31.232,37.08,53.744,69.381,53.744h93.771a70.935,70.935,0,0,0,55.045-26.863h-148.816c-24.916,0-45.185-21.74-45.185-48.539a48.323,48.323,0,0,1,31.591-46.3h0a42.34,42.34,0,0,1,13.612-2.132h75.827v-1.977" transform="translate(1553.223 427)"></path></g><g class="c" transform="translate(4.388 187.407)"><g transform="translate(-8.461 -127.774)"><path class="a" d="M-1409.377-395.538h29.616c1.318,0,2.975-.418,4.231,0,5.824,2.155,8.581,11.152,8.46,17.574.232,7.965-5.023,12.881-12.691,13.181h-59.232c-1.324,0-2.951-.352-4.231,0h0c-.038-.131.055.123,0,0-3.256,1.019-6.373,1.609-8.461,4.393-2.367,3.146-4.059,9.193-4.231,13.181a39.253,39.253,0,0,0,0,4.394h0c.464,3.306,2.248,6.154,4.231,8.787,2.089,2.786,5.205,3.373,8.461,4.393.055-.125-.041.131,0,0h0c1.28.352,2.907,0,4.231,0h59.232A45.059,45.059,0,0,0-1341.684-356c3.443-7.306,4.255-13.834,4.232-21.968.442-21.725-9.791-41.378-29.617-48.33h-4.23c-3.942-.863-8.665.1-12.695,0H-1481.3c-38.87,0-71.923,31.36-71.923,74.691-.024,8.44,1.836,18.3,4.23,26.362h0c9.308,31.232,36.588,52.723,67.694,52.723h97.308c20.674-.164,42.158-9.539,55-26.361H-1481.3c-23.993,0-46.54-21.531-46.54-48.33-.393-20.587,15.245-36.812,33.848-43.935h0c4.227-1.449,8.24-4.432,12.691-4.394h71.925" transform="translate(1553.225 426.655)"></path></g></g></g></g></svg><style>@media (prefers-color-scheme: light) { :root { filter: none; } }
</style></svg>