<svg xmlns="http://www.w3.org/2000/svg" xmlns:xlink="http://www.w3.org/1999/xlink" width="16" height="16" viewBox="0 0 16 16">
  <defs>
    <linearGradient id="linear-gradient" x1="0.209" y1="0.076" x2="0.855" y2="0.849" gradientUnits="objectBoundingBox">
      <stop offset="0" stop-color="#691c80"/>
      <stop offset="1" stop-color="#ff43c7"/>
    </linearGradient>
    <clipPath id="clip-path">
      <rect id="Rectangle_2559" data-name="Rectangle 2559" width="9.139" height="1.054" fill="#fff"/>
    </clipPath>
    <clipPath id="clip-Fav16">
      <rect width="16" height="16"/>
    </clipPath>
  </defs>
  <g id="Fav16" clip-path="url(#clip-Fav16)">
    <g id="Group_3362" data-name="Group 3362" transform="translate(-364 -19)">
      <path id="Path_16805" data-name="Path 16805" d="M8,0A8,8,0,1,1,0,8,8,8,0,0,1,8,0Z" transform="translate(364 19)" fill="url(#linear-gradient)"/>
      <g id="Group_3027" data-name="Group 3027" transform="translate(367.343 22.903)">
        <g id="Group_3025" data-name="Group 3025" transform="translate(0)">
          <path id="Path_16387" data-name="Path 16387" d="M-1547.266-425.672h1.2a.533.533,0,0,1,.161.026.6.6,0,0,1,.4.574.58.58,0,0,1-.558.6h-2.365a.645.645,0,0,0-.163.021l-.019.022a.087.087,0,0,0-.006-.015.682.682,0,0,0-.341.234.767.767,0,0,0-.162.439,1.163,1.163,0,0,0,.007.157h0a.766.766,0,0,0,.155.363.683.683,0,0,0,.341.234.139.139,0,0,0,.006-.015l.019.022a.642.642,0,0,0,.163.021h2.449a1.862,1.862,0,0,0,1.568-1.066,2.12,2.12,0,0,0,.216-.939,1.99,1.99,0,0,0-1.353-1.927l-.074-.017a2.73,2.73,0,0,0-.5-.058h-4.176a3.038,3.038,0,0,0-2.924,3.14,3.351,3.351,0,0,0,.148,1h0a2.953,2.953,0,0,0,2.775,2.15h3.751a2.837,2.837,0,0,0,2.2-1.075h-5.953a1.879,1.879,0,0,1-1.807-1.942,1.933,1.933,0,0,1,1.264-1.852h0a1.693,1.693,0,0,1,.544-.085h3.033v-.079" transform="translate(1553.223 427)" fill="#fff"/>
        </g>
        <g id="Group_8" data-name="Group 8" transform="translate(0.176 7.496)" clip-path="url(#clip-path)">
          <g id="Group_3026" data-name="Group 3026" transform="translate(-0.338 -5.111)">
            <path id="Path_16387-2" data-name="Path 16387" d="M-1547.471-425.41h1.185a.58.58,0,0,1,.169,0c.233.086.343.446.338.7a.488.488,0,0,1-.508.527h-2.369a.686.686,0,0,0-.169,0h0c0-.005,0,0,0,0a.59.59,0,0,0-.338.176,1.1,1.1,0,0,0-.169.527,1.563,1.563,0,0,0,0,.176h0a.774.774,0,0,0,.169.352.591.591,0,0,0,.338.176c0-.005,0,.005,0,0h0a.688.688,0,0,0,.169,0h2.369a1.8,1.8,0,0,0,1.523-1.054,1.9,1.9,0,0,0,.169-.879,1.9,1.9,0,0,0-1.185-1.933h-.169a2.831,2.831,0,0,0-.508,0h-3.892a2.9,2.9,0,0,0-2.877,2.988,3.909,3.909,0,0,0,.169,1.054h0a2.866,2.866,0,0,0,2.708,2.109h3.892a2.833,2.833,0,0,0,2.2-1.054h-6.093a1.941,1.941,0,0,1-1.861-1.933,1.937,1.937,0,0,1,1.354-1.757h0a1.638,1.638,0,0,1,.508-.176h2.877" transform="translate(1553.225 426.655)" fill="#fff"/>
          </g>
        </g>
      </g>
    </g>
  </g>
</svg>
