<svg xmlns="http://www.w3.org/2000/svg" xmlns:xlink="http://www.w3.org/1999/xlink" width="162" height="43" viewBox="0 0 162 43"><defs><style>.a,.b{fill:#fff;}.b{font-size:23px;font-family:Poppins-Regular, Poppins;letter-spacing:-0.04em;}.c{fill:url(#a);}.d{clip-path:url(#b);}</style><linearGradient id="a" x1="0.209" y1="0.076" x2="0.855" y2="0.849" gradientUnits="objectBoundingBox"><stop offset="0" stop-color="#691c80"/><stop offset="1" stop-color="#ff43c7"/></linearGradient><clipPath id="b"><rect class="a" width="23.595" height="2.722"/></clipPath></defs><g transform="translate(-364 -19)"><text class="b" transform="translate(416 49)"><tspan x="0" y="0">Ecocswap</tspan></text><path class="c" d="M21.5,0A21.5,21.5,0,1,1,0,21.5,21.5,21.5,0,0,1,21.5,0Z" transform="translate(364 19)"/><g transform="translate(9973.475 -14573.383)"><g transform="translate(-9599.998 14603.345)"><path class="a" d="M-1537.842-423.571h3.1a1.377,1.377,0,0,1,.417.066,1.542,1.542,0,0,1,1.025,1.483,1.5,1.5,0,0,1-1.441,1.542h-6.107a1.661,1.661,0,0,0-.421.055l-.05.057a.3.3,0,0,0-.015-.039,1.762,1.762,0,0,0-.881.6,1.983,1.983,0,0,0-.419,1.132,3.08,3.08,0,0,0,.017.405h0a1.984,1.984,0,0,0,.4.936,1.763,1.763,0,0,0,.881.6.328.328,0,0,0,.015-.04l.05.057a1.66,1.66,0,0,0,.421.055h6.323a4.808,4.808,0,0,0,4.048-2.752,5.478,5.478,0,0,0,.557-2.424,5.138,5.138,0,0,0-3.493-4.976l-.192-.044a7.051,7.051,0,0,0-1.285-.15h-10.781a7.844,7.844,0,0,0-7.549,8.106,8.641,8.641,0,0,0,.383,2.572h0a7.623,7.623,0,0,0,7.165,5.55h9.684a7.326,7.326,0,0,0,5.685-2.774h-15.369a4.852,4.852,0,0,1-4.667-5.013,4.99,4.99,0,0,1,3.262-4.781h0a4.372,4.372,0,0,1,1.406-.22h7.831v-.2" transform="translate(1553.223 427)"/></g><g class="d" transform="translate(-9599.545 14622.699)"><g transform="translate(-0.874 -13.196)"><path class="a" d="M-1538.369-423.441h3.059a1.5,1.5,0,0,1,.437,0c.6.223.886,1.152.874,1.815a1.26,1.26,0,0,1-1.311,1.361h-6.117a1.771,1.771,0,0,0-.437,0h0c0-.013.006.013,0,0a1.527,1.527,0,0,0-.874.454,2.856,2.856,0,0,0-.437,1.361,4.048,4.048,0,0,0,0,.454h0a2.005,2.005,0,0,0,.437.907,1.527,1.527,0,0,0,.874.454c.006-.013,0,.014,0,0h0a1.771,1.771,0,0,0,.437,0h6.117a4.653,4.653,0,0,0,3.932-2.722,4.907,4.907,0,0,0,.437-2.269,4.906,4.906,0,0,0-3.059-4.991h-.437a7.3,7.3,0,0,0-1.311,0h-10.05a7.5,7.5,0,0,0-7.428,7.714,10.08,10.08,0,0,0,.437,2.723h0a7.4,7.4,0,0,0,6.991,5.445h10.05a7.314,7.314,0,0,0,5.68-2.722h-15.73a5.012,5.012,0,0,1-4.806-4.991,5,5,0,0,1,3.5-4.537h0a4.228,4.228,0,0,1,1.311-.454h7.428" transform="translate(1553.225 426.655)"/></g></g></g></g></svg>